<svg width="64" height="64" viewBox="0 0 64 64" fill="none" xmlns="http://www.w3.org/2000/svg">
<path d="M54.9169 37.1247C54.8964 36.9128 54.8085 36.7132 54.6664 36.5545C51.141 32.6258 45.8373 29.2682 39.7284 27.0989C39.2958 26.9475 38.9325 26.6427 38.7035 26.2467C38.6908 26.1707 38.6688 26.0949 38.6371 26.0208C38.4281 25.5305 38.5863 24.9513 39.0429 24.6208C42.2904 22.0867 44.2294 17.9505 44.2294 13.5569C44.2294 6.09545 38.7431 0.0251504 31.9999 0.0251504C25.2567 0.0251504 19.7709 6.09545 19.7709 13.5569C19.7709 18.0354 21.7631 22.1936 25.121 24.6956C25.5312 24.9851 25.6952 25.5231 25.5248 25.9958C25.515 26.0149 25.5063 26.0343 25.4975 26.0539C25.3007 26.513 24.9198 26.8689 24.4506 27.0324C18.2631 29.2038 12.8944 32.5857 9.33392 36.5545C9.19184 36.7132 9.10392 36.9128 9.08342 37.1247C8.46472 43.45 11.4042 50.2272 16.9506 55.2575C17.5927 55.8341 18.3734 56.2547 19.2152 56.4753C23.2782 57.513 27.6381 58.0314 31.9994 58.0314C36.3773 58.0314 40.7567 57.5085 44.8363 56.4632C45.6366 56.2511 46.3886 55.8455 47.0155 55.2864C52.5819 50.2575 55.5355 43.4679 54.9169 37.1247ZM45.6801 53.799C45.2914 54.1457 44.8227 54.3987 44.3324 54.5285C36.5111 56.534 27.5365 56.5378 19.7162 54.5402C19.1869 54.4016 18.6923 54.1349 18.2895 53.7737C13.31 49.257 10.619 43.2517 11.0443 37.6447C14.3847 34.0271 19.3656 30.9352 25.1098 28.9191C26.0731 28.5842 26.8637 27.8645 27.2929 26.9363C27.31 26.9055 27.3256 26.8732 27.3397 26.8405C27.9149 25.4919 27.4662 23.9025 26.2938 23.0774C23.4613 20.966 21.7699 17.407 21.7699 13.5569C21.7699 7.19745 26.3593 2.02415 31.9999 2.02415C37.641 2.02415 42.2304 7.19745 42.2304 13.5569C42.2304 17.3396 40.579 20.8864 37.8432 23.0222C36.7372 23.8206 36.2865 25.2097 36.6835 26.4914C36.6898 26.6066 36.7167 26.7204 36.7621 26.8263C37.1942 27.8361 38.0341 28.6232 39.0629 28.9842C44.7304 30.9963 49.6493 34.0652 52.9555 37.6447C53.3813 43.2677 50.6771 49.2844 45.6801 53.799Z" fill="#EBCC67"/>
<path d="M35.9999 62.0745H27.9999C27.475 62.0745 27.0497 62.4997 27.0497 63.0247C27.0497 63.5495 27.475 63.9748 27.9999 63.9748H35.9999C36.5248 63.9748 36.9501 63.5495 36.9501 63.0247C36.9501 62.4997 36.5248 62.0745 35.9999 62.0745Z" fill="#EBCC67"/>
</svg>
